<svg width="16" height="16" xmlns="http://www.w3.org/2000/svg" xmlns:xlink="http://www.w3.org/1999/xlink" xml:space="preserve" overflow="hidden"><g transform="translate(-635 -310)"><path d="M649 314.5 649 324C649 325.105 648.105 326 647 326L646 326 646 325 647 325C647.552 325 648 324.552 648 324L648 314.5 646 314.5C645.172 314.5 644.5 313.828 644.5 313L644.5 311 639 311C638.448 311 638 311.448 638 312L638 321 637 321 637 312C637 310.895 637.895 310 639 310L644.5 310ZM636.6 321.85 635 321.85 635 325.849 635.791 325.849 635.791 324.507 636.594 324.507C636.881 324.507 637.125 324.449 637.326 324.334 637.529 324.217 637.684 324.059 637.789 323.86 637.899 323.651 637.954 323.419 637.95 323.183 637.95 322.933 637.897 322.707 637.792 322.506 637.686 322.307 637.527 322.142 637.332 322.029 637.132 321.909 636.888 321.849 636.6 321.85M637.145 323.183C637.148 323.315 637.119 323.445 637.06 323.563 637.007 323.666 636.924 323.75 636.822 323.804 636.706 323.861 636.577 323.889 636.447 323.886L635.788 323.886 635.788 322.48 636.448 322.48C636.666 322.48 636.837 322.54 636.96 322.661 637.083 322.782 637.145 322.956 637.145 323.183M641.625 325.849 641.625 321.85 640.835 321.85 640.835 323.476 639.153 323.476 639.153 321.85 638.363 321.85 638.363 325.849 639.153 325.849 639.153 324.135 640.835 324.135 640.835 325.849ZM642.328 321.85 643.928 321.85C644.217 321.85 644.461 321.91 644.66 322.029 644.86 322.146 645.013 322.305 645.12 322.506 645.225 322.707 645.278 322.933 645.278 323.183 645.278 323.433 645.224 323.659 645.117 323.86 645.011 324.059 644.857 324.217 644.654 324.334 644.429 324.455 644.176 324.515 643.921 324.507L643.12 324.507 643.12 325.849 642.329 325.849ZM644.388 323.564C644.447 323.446 644.476 323.315 644.472 323.183 644.472 322.956 644.411 322.783 644.288 322.662 644.165 322.541 643.994 322.48 643.775 322.48L643.115 322.48 643.115 323.886 643.775 323.886C643.905 323.889 644.034 323.861 644.15 323.804 644.251 323.75 644.334 323.666 644.387 323.564Z" fill-rule="evenodd"/></g></svg>